<svg id="Layer_1" data-name="Layer 1" xmlns="http://www.w3.org/2000/svg" xmlns:xlink="http://www.w3.org/1999/xlink" viewBox="0 0 128 128"><defs><style>.cls-1{fill:url(#linear-gradient);}.cls-2{fill:url(#linear-gradient-2);}.cls-3{fill:url(#linear-gradient-3);}.cls-4{fill:url(#linear-gradient-4);}.cls-5{fill:url(#linear-gradient-5);}.cls-6{fill:url(#linear-gradient-6);}.cls-7{fill:url(#linear-gradient-7);}.cls-8{fill:url(#linear-gradient-8);}.cls-9{fill:url(#linear-gradient-9);}.cls-10{fill:url(#linear-gradient-10);}.cls-11{fill:url(#linear-gradient-11);}.cls-12{fill:url(#linear-gradient-12);}.cls-13{fill:url(#linear-gradient-13);}</style><linearGradient id="linear-gradient" x1="55.68" y1="33.76" x2="63.98" y2="33.76" gradientUnits="userSpaceOnUse"><stop offset="0" stop-color="#bf9635"/><stop offset="0.92" stop-color="#ffdd3f"/></linearGradient><linearGradient id="linear-gradient-2" x1="66.69" y1="33.76" x2="83.65" y2="33.76" xlink:href="#linear-gradient"/><linearGradient id="linear-gradient-3" x1="84.88" y1="33.76" x2="107.09" y2="33.76" xlink:href="#linear-gradient"/><linearGradient id="linear-gradient-4" x1="55.68" y1="64.61" x2="78.48" y2="64.61" xlink:href="#linear-gradient"/><linearGradient id="linear-gradient-5" x1="80.34" y1="64.61" x2="91.88" y2="64.61" xlink:href="#linear-gradient"/><linearGradient id="linear-gradient-6" x1="92.88" y1="64.61" x2="107.09" y2="64.61" xlink:href="#linear-gradient"/><linearGradient id="linear-gradient-7" x1="55.68" y1="95.44" x2="76.8" y2="95.44" xlink:href="#linear-gradient"/><linearGradient id="linear-gradient-8" x1="78.95" y1="95.44" x2="87.37" y2="95.44" xlink:href="#linear-gradient"/><linearGradient id="linear-gradient-9" x1="90.11" y1="95.46" x2="107.09" y2="95.46" xlink:href="#linear-gradient"/><linearGradient id="linear-gradient-10" x1="26.87" y1="56.41" x2="28.14" y2="56.41" xlink:href="#linear-gradient"/><linearGradient id="linear-gradient-11" x1="20.91" y1="67.8" x2="34.08" y2="67.8" xlink:href="#linear-gradient"/><linearGradient id="linear-gradient-12" x1="34.08" y1="67.8" x2="47.26" y2="67.8" xlink:href="#linear-gradient"/><linearGradient id="linear-gradient-13" x1="20.91" y1="19" x2="47.25" y2="19" xlink:href="#linear-gradient"/></defs><title>logo</title><rect width="128" height="128" rx="20" ry="20"/><path class="cls-1" d="M55.68,48.6V18.93H64V48.6Z"/><path class="cls-2" d="M66.69,38.74A18.26,18.26,0,0,0,70,40.88a6.25,6.25,0,0,0,2.62.73A2.36,2.36,0,0,0,74.22,41a2,2,0,0,0,.64-1.48q0-1.07-2.16-3.09l-.08-.08A25.94,25.94,0,0,1,67.83,31,8.28,8.28,0,0,1,66.77,27a8.15,8.15,0,0,1,2.56-6.19,9.13,9.13,0,0,1,6.57-2.43,12.9,12.9,0,0,1,3.24.43,18.42,18.42,0,0,1,3.47,1.28v7.7A14,14,0,0,0,79.83,26a5.79,5.79,0,0,0-2.39-.6,2.21,2.21,0,0,0-1.5.5,1.63,1.63,0,0,0-.57,1.29c0,.76.71,1.69,2.13,2.8a2.5,2.5,0,0,0,.25.21,20.25,20.25,0,0,1,4.8,4.88,8.89,8.89,0,0,1,1.1,4.53,9.2,9.2,0,0,1-2.75,7,10.11,10.11,0,0,1-7.29,2.63,11,11,0,0,1-3.44-.55,15.09,15.09,0,0,1-3.48-1.71Z"/><path class="cls-3" d="M84.88,33.78q0-7.35,2.92-11.4a10.34,10.34,0,0,1,16.39,0q2.9,4,2.9,11.41T104.2,45.16a10.36,10.36,0,0,1-16.41,0Q84.88,41.13,84.88,33.78Zm8.38-.2a21.49,21.49,0,0,0,.62,6.33A2.19,2.19,0,0,0,96,41.61a2.16,2.16,0,0,0,2.11-1.68,22,22,0,0,0,.6-6.35,22.16,22.16,0,0,0-.6-6.36,2.17,2.17,0,0,0-4.24,0A21.62,21.62,0,0,0,93.26,33.58Z"/><path class="cls-4" d="M55.68,77.47l1.65-25.71h7.73l2,13.56,2-13.56h7.71l1.66,25.71H72.56l-.49-18.21L69.49,77.47H64.67L62.09,59.26l-.51,18.21Z"/><path class="cls-5" d="M80.34,77.47V51.76H91.88V58h-5v3.28h4.52v6H86.86v3.54h5v6.64Z"/><path class="cls-6" d="M103.24,77.47H96.73V58.27H92.88V51.76h14.21v6.51h-3.85Z"/><path class="cls-7" d="M55.68,110.3V80.59h9.67a11.39,11.39,0,0,1,7.74,2.46,8.43,8.43,0,0,1,2.83,6.69,7.7,7.7,0,0,1-1.27,4.45,8.64,8.64,0,0,1-3.81,2.94l6,13.17H67.89l-3.8-11.5v11.5Zm8.41-23.55v7.08a3.37,3.37,0,0,0,2.5-.88,3.83,3.83,0,0,0,.78-2.66,4,4,0,0,0-.74-2.65,2.71,2.71,0,0,0-2.21-.89Z"/><path class="cls-8" d="M79,110.3V80.59h8.42V110.3Z"/><path class="cls-9" d="M107.09,109.83a13.72,13.72,0,0,1-2.4.79,10.27,10.27,0,0,1-2.32.27A10.89,10.89,0,0,1,98,110a12.24,12.24,0,0,1-3.81-2.63,13.17,13.17,0,0,1-3.08-5.08,22.14,22.14,0,0,1-1-7q0-6.73,3.37-11A10.54,10.54,0,0,1,102.1,80a15.48,15.48,0,0,1,2.55.21,15.86,15.86,0,0,1,2.44.62V88a8,8,0,0,0-1.57-.65,5.39,5.39,0,0,0-1.5-.22,4.22,4.22,0,0,0-3.82,2.08,11.74,11.74,0,0,0-1.3,6.14,11.27,11.27,0,0,0,1.29,5.91,4.06,4.06,0,0,0,3.64,2.09,5.56,5.56,0,0,0,1.68-.25,6.56,6.56,0,0,0,1.58-.71Z"/><polygon class="cls-10" points="26.87 58.32 28.14 59.05 27.5 53.78 26.87 58.32"/><path class="cls-11" d="M20.91,19v90l13.17,7.6v-90Zm3.85,7.26,5.69,3.28v3.21L28,31.32V33l2.23,1.28v3.1L28,36.11v1.82l2.47,1.43v3.41l-5.69-3.28Zm5.69,73.19L28,98v1.68L30.21,101v3.1L28,102.81v1.82l2.47,1.43v3.42l-5.69-3.29V93l5.69,3.28Zm-.69-13.52c-.7.38-1.64.23-2.81-.44a7,7,0,0,1-1.32-1,12.65,12.65,0,0,1-1.34-1.54V79.29A15.23,15.23,0,0,0,25.55,81a4.21,4.21,0,0,0,1,.9.69.69,0,0,0,.64.11.53.53,0,0,0,.24-.52,4.82,4.82,0,0,0-.83-1.86l0,0a24.52,24.52,0,0,1-1.84-3.44,5.67,5.67,0,0,1-.41-2.06,2.24,2.24,0,0,1,1-2.19,2.59,2.59,0,0,1,2.53.38,7.74,7.74,0,0,1,1.26.91,14.06,14.06,0,0,1,1.33,1.34v3.44a14.09,14.09,0,0,0-1.07-1.42,4,4,0,0,0-.92-.79.68.68,0,0,0-.58-.12.44.44,0,0,0-.22.45,3.92,3.92,0,0,0,.82,1.73l.1.14a19.1,19.1,0,0,1,1.85,3.25,6.33,6.33,0,0,1,.42,2.26C30.82,84.73,30.47,85.56,29.76,85.93ZM28.69,64l-.24-2.09-1.9-1.09-.24,1.81-3.12-1.81L25.7,49l3.6,2.08,2.51,14.68Z"/><path class="cls-12" d="M44.25,24.2v83.07l-7.18,4.14V28.34l7.17-4.14m3-5.2L34.08,26.6v90L47.26,109V19Z"/><path class="cls-13" d="M34.08,13.7,43.25,19l-9.17,5.3L24.91,19l9.17-5.3m0-2.3L20.91,19l13.17,7.61L47.25,19,34.08,11.4Z"/></svg>